# xmcd CD database file
#
# Track frame offsets:
#	150
#	16862
#	36345
#	53060
#
# Disc length: 965 seconds
#
# Revision: 0
# Processed by: cddbd v1.5PL3 Copyright (c) Steve Scherf et al.
# Submitted via: CDex 1.51
#
DISCID=2803c304
DTITLE=片瀬那奈 - Necessary/EVERY***
DYEAR=2003
DGENRE=JPop
TTITLE0=Necessary
TTITLE1=EVERY***
TTITLE2=Necessary (INSTRUMENTAL)
TTITLE3=EVERY*** (INSTRUMENTAL)
EXTD=YEAR: 2003
EXTT0=
EXTT1=
EXTT2=
EXTT3=
PLAYORDER=
